<?xml version="1.0" standalone="no"?>
<!DOCTYPE svg PUBLIC "-//W3C//DTD SVG 1.1//EN" "http://www.w3.org/Graphics/SVG/1.1/DTD/svg11.dtd" >
<svg xmlns="http://www.w3.org/2000/svg">
<metadata></metadata>
<defs>
<font id="frutiger-lightlight" horiz-adv-x="1138" >
<font-face units-per-em="2048" ascent="1536" descent="-512" />
<missing-glyph horiz-adv-x="569" />
<glyph unicode="&#xfb01;" d="M39 934v110h211v76q0 82 5 161t31.5 141.5t83 100.5t156.5 38q31 0 67 -5.5t54 -15.5l-8 -113q-20 10 -47 16.5t-55 6.5q-66 0 -98.5 -32t-46 -79t-13.5 -102v-102v-91h235v-110h-235v-934h-129v934h-211zM825 0v1044h129v-1044h-129zM825 1323v172h129v-172h-129z" />
<glyph unicode="&#xfb02;" d="M39 934v110h211v76q0 82 5 161t31.5 141.5t83 100.5t156.5 38q31 0 67 -5.5t54 -15.5l-8 -113q-20 10 -47 16.5t-55 6.5q-66 0 -98.5 -32t-46 -79t-13.5 -102v-102v-91h235v-110h-235v-934h-129v934h-211zM825 0v1536h129v-1536h-129z" />
<glyph horiz-adv-x="2048" />
<glyph horiz-adv-x="2048" />
<glyph unicode="&#xd;" horiz-adv-x="569" />
<glyph unicode=" "  horiz-adv-x="569" />
<glyph unicode="&#x09;" horiz-adv-x="569" />
<glyph unicode="&#xa0;" horiz-adv-x="569" />
<glyph unicode="!" horiz-adv-x="796" d="M315 0v172h166v-172h-166zM315 1430h166l-24 -1084h-117z" />
<glyph unicode="&#x22;" d="M367 983v447h129v-447h-129zM643 983v447h129v-447h-129z" />
<glyph unicode="#" d="M70 449v110h227l45 311h-219v111h233l64 449h125l-64 -449h267l63 449h125l-64 -449h197v-111h-211l-43 -311h197v-110h-213l-64 -449h-125l64 449h-266l-64 -449h-125l64 449h-213zM424 559h266l43 311h-266z" />
<glyph unicode="$" d="M174 1081q0 74 26.5 136.5t74 108.5t112 77t139.5 43v133h105v-125q53 0 129 -9t147 -38l-22 -129q-47 27 -115 39t-139 14v-543q63 -35 123.5 -72.5t108.5 -85.5t78 -109.5t30 -141.5q0 -86 -28 -152.5t-75 -115t-108.5 -79t-128.5 -44.5v-170h-105v159q-8 -2 -24 -2 q-104 0 -185 18.5t-139 43.5l15 145q63 -41 139 -62.5t176 -21.5q10 0 18 2v588q-63 35 -126.5 73t-113.5 85t-81 104.5t-31 130.5zM315 1085q0 -80 60.5 -135t150.5 -104v475q-43 -8 -80.5 -25.5t-66.5 -46t-46.5 -69.5t-17.5 -95zM631 117q88 25 143 91t55 183 q0 76 -56 131.5t-142 106.5v-512z" />
<glyph unicode="%" horiz-adv-x="2048" d="M215 1061q0 82 18.5 152.5t58.5 121.5t100.5 80t146.5 29t146 -29t100 -80t58.5 -121.5t18.5 -152.5t-18.5 -152.5t-58.5 -122t-100 -80t-146 -28.5t-146.5 28.5t-100.5 80t-58.5 122t-18.5 152.5zM344 1061q0 -47 9 -96.5t31 -88t59.5 -63.5t95.5 -25q57 0 95 25 t59.5 63.5t30.5 88t9 96.5t-9 96t-30.5 88t-59.5 63.5t-95 24.5t-95 -24.5t-60 -63.5t-31 -88t-9 -96zM541 -45l845 1520h119l-846 -1520h-118zM1186 369q0 82 18.5 152.5t58.5 121.5t100 80t146 29t146.5 -29t100.5 -80t58.5 -121.5t18.5 -152.5t-18.5 -153t-58.5 -122 t-100.5 -79.5t-146.5 -28.5t-146 28.5t-100 79.5t-58.5 122t-18.5 153zM1315 369q0 -47 9 -96.5t30.5 -88.5t59.5 -63.5t95 -24.5t95 24.5t60 63.5t31 88.5t9 96.5t-9 96t-31 88t-59.5 63.5t-95.5 24.5q-57 0 -95 -24.5t-59.5 -63.5t-30.5 -88t-9 -96z" />
<glyph unicode="&#x26;" horiz-adv-x="1366" d="M102 375q0 82 26 146.5t72 115.5t107.5 88t132.5 66q-33 37 -66.5 76.5t-60 82.5t-43 91.5t-16.5 101.5q0 76 34 134t88 98t122.5 59.5t140.5 19.5q63 0 123.5 -17.5t108 -54t76 -92t28.5 -131.5q0 -84 -30 -143.5t-78 -103.5t-110.5 -76.5t-125.5 -65.5l377 -420 q68 98 95 208t27 226h123q0 -139 -39.5 -273t-119.5 -243l243 -264h-180l-151 160q-88 -98 -198 -143.5t-237 -45.5q-90 0 -175 24t-150.5 73t-104.5 123.5t-39 179.5zM244 381q0 -74 27.5 -129t73.5 -92t105.5 -55.5t124.5 -18.5q98 0 194.5 45t158.5 121l-416 459 q-51 -20 -99 -52t-86 -74t-60.5 -93.5t-22.5 -110.5zM395 1135q0 -43 14.5 -81t37 -74t52 -69.5t58.5 -66.5q47 23 96 47t89 58t66 79t26 109q0 102 -55.5 154t-147.5 52q-45 0 -88 -13t-76 -38.5t-52.5 -65.5t-19.5 -91z" />
<glyph unicode="'" horiz-adv-x="569" d="M221 983v447h129v-447h-129z" />
<glyph unicode="(" horiz-adv-x="569" d="M86 631q0 129 29.5 248.5t79 233.5t112 222.5t129.5 212.5h86q-55 -109 -110.5 -218t-99.5 -223t-70.5 -232.5t-26.5 -243.5t26.5 -244t70.5 -232.5t99.5 -224t110.5 -217.5h-86q-68 104 -130 213t-111.5 222.5t-79 233.5t-29.5 249z" />
<glyph unicode=")" horiz-adv-x="569" d="M47 -287q55 106 110.5 217t99.5 224.5t70.5 232.5t26.5 244t-26.5 243.5t-70.5 232.5t-99.5 223.5t-110.5 217.5h86q68 -104 130.5 -212.5t111.5 -222.5t78.5 -233.5t29.5 -248.5t-29.5 -249t-78.5 -233.5t-111.5 -222t-130.5 -213.5h-86z" />
<glyph unicode="*" d="M188 1112l35 119l301 -115l-14 314h119l-15 -314l297 115l39 -119l-301 -86l199 -244l-103 -77l-176 268l-172 -268l-100 77l192 244z" />
<glyph unicode="+" horiz-adv-x="1228" d="M94 449v141h449v448h141v-448h449v-141h-449v-449h-141v449h-449z" />
<glyph unicode="," horiz-adv-x="569" d="M111 -274l118 446h172l-161 -446h-129z" />
<glyph unicode="-" horiz-adv-x="681" d="M84 481v142h514v-142h-514z" />
<glyph unicode="." horiz-adv-x="569" d="M201 0v172h166v-172h-166z" />
<glyph unicode="/" horiz-adv-x="569" d="M-63 -25l555 1479h141l-555 -1479h-141z" />
<glyph unicode="0" d="M100 715q0 125 19.5 255t72 235.5t143.5 172t234 66.5t234.5 -66.5t143.5 -172t71.5 -235.5t19.5 -255q0 -113 -16 -241t-65.5 -236.5t-141.5 -180t-246 -71.5t-246 71.5t-141 180t-65.5 236.5t-16.5 241zM242 715q0 -90 9 -195.5t43 -197t99.5 -152.5t175.5 -61 q111 0 176.5 61t99.5 152.5t43 197t9 195.5q0 88 -9 194.5t-43 197.5t-99.5 152.5t-176.5 61.5t-176 -61.5t-99 -152.5t-43 -197.5t-9 -194.5z" />
<glyph unicode="1" d="M252 1159l323 271h127v-1430h-141v1270l-231 -203z" />
<glyph unicode="2" d="M102 0v123l328 362q63 72 125.5 147t111 148.5t78 145t29.5 137.5q0 57 -19.5 104t-53 81t-80 53.5t-99.5 19.5q-98 0 -178 -26.5t-166 -75.5l-24 129q78 39 175 67.5t185 28.5q86 0 162 -22.5t132 -68.5t88 -117t32 -167q0 -80 -36 -165t-92.5 -171t-126 -169 t-138.5 -158l-259 -283h685v-123h-859z" />
<glyph unicode="3" d="M102 43l17 135q88 -41 177 -55t167 -14q63 0 128.5 16t119 52t86 93.5t32.5 139.5q0 92 -39.5 145t-98 81t-127 36t-126.5 8h-131v123h37q74 0 159 7t157.5 35.5t120.5 86t48 158.5q0 59 -29.5 103t-76.5 72.5t-105.5 42t-115.5 13.5q-86 0 -165 -20.5t-155 -55.5 l-12 133q78 29 167 47.5t179 18.5q88 0 170 -19.5t145.5 -62.5t101.5 -110.5t38 -161.5q0 -131 -83 -220.5t-214 -121.5v-5q72 -4 127 -31.5t93 -73.5t57.5 -107.5t19.5 -133.5q0 -98 -40 -174t-110.5 -129t-165 -80.5t-200.5 -27.5q-92 0 -179.5 12t-173.5 45z" />
<glyph unicode="4" d="M47 330v139l643 961h180v-977h211v-123h-211v-330h-141v330h-682zM176 453h553v835h-4z" />
<glyph unicode="5" d="M176 37v145q68 -37 149 -55t156 -18q70 0 137.5 19t122 59t87 100.5t32.5 144.5q0 166 -88 245t-270 79q-90 0 -161 -11.5t-148 -33.5l14 719h731v-123h-592l-10 -459q35 12 84 21.5t133 9.5q209 0 328.5 -110t119.5 -308q0 -119 -37.5 -208t-107.5 -148.5t-165 -89 t-210 -29.5q-78 0 -155.5 11t-149.5 40z" />
<glyph unicode="6" d="M113 664q0 162 32.5 304t108.5 247.5t198.5 167t305.5 61.5q59 0 115.5 -9.5t113.5 -23.5l-12 -135q-45 20 -109.5 32.5t-126.5 12.5q-139 2 -232 -49t-149.5 -136t-80 -192.5t-23.5 -216.5h4q55 92 145.5 134t190.5 42q70 0 148.5 -19.5t144 -70.5t108.5 -137t43 -219 q0 -104 -31.5 -191.5t-92 -149t-146.5 -96t-197 -34.5q-141 0 -231 58t-140 154.5t-68.5 217.5t-18.5 248zM268 463q0 -66 18.5 -129.5t56.5 -113.5t95.5 -80.5t136.5 -30.5q78 0 138.5 25.5t101.5 70.5t61.5 107.5t20.5 133.5q0 158 -76.5 246t-226.5 88q-154 0 -240 -88 t-86 -229z" />
<glyph unicode="7" d="M119 1307v123h872v-123l-553 -1307h-155l569 1307h-733z" />
<glyph unicode="8" d="M94 367q0 82 25.5 141t69.5 103t104.5 76t130.5 56q-55 27 -106.5 61t-91.5 78t-63.5 100t-23.5 128q0 90 43 153.5t107.5 103.5t139.5 58.5t140 18.5q84 0 161 -19.5t136.5 -60.5t95 -103.5t35.5 -150.5q0 -66 -26.5 -121t-68.5 -100t-94 -82t-103 -64q74 -27 135 -57.5 t107 -73.5t71.5 -102t25.5 -143q0 -104 -41.5 -177t-109.5 -118t-153 -65.5t-171 -20.5t-171 22.5t-152.5 69.5t-109.5 118.5t-42 170.5zM236 367q0 -59 28.5 -107.5t76.5 -82.5t107.5 -51t120.5 -17q63 0 123 14t107 47t75.5 84t28.5 125q0 68 -33.5 115t-84 82.5 t-109 62.5t-107.5 51q-61 -25 -121.5 -51.5t-107.5 -61t-75.5 -86t-28.5 -124.5zM281 1098q0 -61 28.5 -108.5t71.5 -83.5t94 -63.5t94 -47.5q49 25 99.5 54.5t92.5 66t68.5 81.5t26.5 101q0 57 -25.5 99t-67.5 69.5t-93.5 41t-100.5 13.5q-55 0 -107 -14.5t-92 -42 t-64.5 -69.5t-24.5 -97z" />
<glyph unicode="9" d="M100 973q0 104 32 191t92.5 148.5t146 96.5t196.5 35q141 0 231.5 -58.5t140.5 -154.5t68.5 -218t18.5 -247q0 -162 -32.5 -304.5t-108.5 -247.5t-200 -166.5t-304 -61.5q-59 0 -115.5 9t-113.5 23l12 136q45 -20 109.5 -32.5t125.5 -12.5q139 -2 232.5 49t150 136 t80 192.5t23.5 215.5h-4q-55 -92 -145.5 -134t-190.5 -42q-72 0 -150 19.5t-143.5 71t-108.5 137.5t-43 219zM242 983q0 -158 76.5 -246t226.5 -88q154 0 239.5 88t85.5 230q0 66 -18 129t-56 113.5t-95.5 81t-137.5 30.5q-78 0 -138 -25.5t-101 -70.5t-61.5 -107.5 t-20.5 -134.5z" />
<glyph unicode=":" horiz-adv-x="569" d="M201 0v172h166v-172h-166zM201 872v172h166v-172h-166z" />
<glyph unicode=";" horiz-adv-x="569" d="M111 -274l118 446h172l-161 -446h-129zM201 872v172h166v-172h-166z" />
<glyph unicode="&#x3c;" horiz-adv-x="1228" d="M94 455v127l1039 471v-135l-881 -400l881 -399v-135z" />
<glyph unicode="=" horiz-adv-x="1228" d="M94 242v141h1039v-141h-1039zM94 653v142h1039v-142h-1039z" />
<glyph unicode="&#x3e;" horiz-adv-x="1228" d="M96 -16v135l883 399l-883 400v135l1039 -471v-127z" />
<glyph unicode="?" horiz-adv-x="1024" d="M176 1403q72 23 147.5 37t151.5 14q80 0 150.5 -21.5t125 -66.5t86 -114.5t31.5 -164.5q0 -84 -25.5 -147t-64.5 -114.5t-85 -97.5t-85 -96t-64.5 -111.5t-25.5 -143.5v-31h-129v27q0 92 24.5 159.5t62.5 120t82 96.5t82 92t62.5 106.5t24.5 139.5q0 115 -73.5 179.5 t-184.5 64.5q-84 0 -152.5 -17.5t-134.5 -39.5zM373 0v172h166v-172h-166z" />
<glyph unicode="@" horiz-adv-x="1638" d="M82 715q0 139 46 272t139 236.5t231.5 167t322.5 63.5q135 0 265.5 -40t232.5 -117.5t165.5 -193.5t63.5 -267q0 -131 -48 -235.5t-118.5 -176.5t-151.5 -111t-145 -39q-137 0 -161 125h-4q-18 -23 -41 -45t-52.5 -39.5t-68.5 -29t-90 -11.5q-61 0 -111.5 25t-87.5 67 t-57.5 97t-20.5 119q0 100 34 199.5t96.5 178t149.5 128t193 49.5q72 0 131.5 -37t94.5 -121l43 123h129l-175 -557q-20 -57 -20 -101q0 -18 10 -32.5t35 -14.5q57 0 111.5 35t96.5 95.5t67.5 139t25.5 169.5q0 119 -49 211t-131 155.5t-188.5 96t-223.5 32.5 q-129 0 -239.5 -46t-191.5 -128t-127 -194.5t-46 -245.5q0 -135 46 -248t127 -196t191.5 -129t239.5 -46q174 0 314.5 61.5t226.5 166.5h125q-96 -166 -270.5 -258.5t-395.5 -92.5q-184 0 -322.5 63.5t-231.5 168t-139 236.5t-46 272zM545 594q4 -94 43 -145.5t104 -51.5 q74 0 136.5 44t106.5 108.5t68.5 140.5t24.5 139q0 53 -15.5 89t-39 57.5t-53 30t-56.5 8.5q-49 0 -105.5 -31t-103.5 -87t-78.5 -133t-31.5 -169z" />
<glyph unicode="A" horiz-adv-x="1366" d="M27 0l585 1430h160l567 -1430h-147l-154 383h-721l-153 -383h-137zM371 506h620l-309 788z" />
<glyph unicode="B" d="M164 0v1430h340q88 0 169 -16.5t144.5 -56.5t101 -108.5t37.5 -171.5q0 -274 -260 -325v-4q135 -25 219 -112t84 -228q0 -117 -44 -195t-119.5 -126t-176 -67.5t-210.5 -19.5h-285zM305 123h148q72 0 143.5 11t129.5 42t95 85t37 140q0 94 -38 150.5t-98 85.5t-137 37 t-155 8h-125v-559zM309 805h158q55 0 116.5 9t113 38t85 81t33.5 138q0 78 -31.5 124t-79 70.5t-101.5 33t-99 8.5h-195v-502z" />
<glyph unicode="C" horiz-adv-x="1366" d="M117 715q0 162 50 298t144.5 234.5t227.5 152.5t299 54q31 0 75.5 -3t92 -9t89.5 -16.5t70 -24.5l-8 -131q-68 35 -156 48t-163 13q-139 0 -247 -46t-181.5 -129t-112.5 -195.5t-39 -245.5q0 -135 38 -249t110.5 -195t181 -127t250.5 -46q35 0 77.5 3t85.5 9.5t84 18.5 t72 31l8 -123q-29 -18 -70.5 -29.5t-87.5 -18.5t-91.5 -10.5t-77.5 -3.5q-170 0 -303.5 53.5t-226.5 150.5t-142 233.5t-49 302.5z" />
<glyph unicode="D" horiz-adv-x="1366" d="M164 0v1430h354q193 0 328 -52.5t221 -147.5t126 -226.5t40 -286.5q0 -195 -61.5 -331t-171 -222t-259 -125t-327.5 -39h-250zM305 123h117q152 0 275.5 32.5t210.5 104.5t135.5 186.5t48.5 278.5t-46.5 275.5t-124 179t-184 97.5t-225.5 30h-207v-1184z" />
<glyph unicode="E" horiz-adv-x="1024" d="M176 0v1430h701v-123h-560v-510h531v-123h-531v-551h584v-123h-725z" />
<glyph unicode="F" horiz-adv-x="909" d="M158 0v1430h680v-123h-539v-510h514v-123h-514v-674h-141z" />
<glyph unicode="G" horiz-adv-x="1478" d="M131 715q0 162 50 298t144.5 234.5t227.5 152.5t299 54q41 0 92 -4t103.5 -11t101.5 -20.5t86 -32.5l-16 -131q-84 47 -178.5 61.5t-188.5 14.5q-139 0 -246.5 -46t-181.5 -129t-113 -195.5t-39 -245.5q0 -135 38 -249t111 -195t181.5 -127t249.5 -46q33 0 75 2t84 8.5 t80.5 15.5t63.5 26v501h-332v123h473v-711q-111 -47 -218 -67.5t-226 -20.5q-170 0 -303 53.5t-226.5 150.5t-142.5 233.5t-49 302.5z" />
<glyph unicode="H" horiz-adv-x="1366" d="M180 0v1430h142v-633h722v633h142v-1430h-142v674h-722v-674h-142z" />
<glyph unicode="I" horiz-adv-x="454" d="M158 0v1430h141v-1430h-141z" />
<glyph unicode="J" horiz-adv-x="681" d="M29 0v125q29 -14 65.5 -20.5t67.5 -6.5q59 0 99 21.5t64.5 58.5t35 85t10.5 102v1065h141v-1061q0 -82 -19.5 -154t-59.5 -125t-104.5 -84t-152.5 -31q-35 0 -75 6.5t-72 18.5z" />
<glyph unicode="K" horiz-adv-x="1251" d="M195 0v1430h141v-642l643 642h184l-692 -674l752 -756h-195l-692 715v-715h-141z" />
<glyph unicode="L" horiz-adv-x="909" d="M164 0v1430h141v-1307h574v-123h-715z" />
<glyph unicode="M" horiz-adv-x="1820" d="M176 0v1430h219l523 -1258l524 1258h203v-1430h-142v1288h-4l-520 -1288h-121l-536 1288h-5v-1288h-141z" />
<glyph unicode="N" horiz-adv-x="1366" d="M158 0v1430h178l727 -1258h4v1258h141v-1430h-190l-715 1233h-4v-1233h-141z" />
<glyph unicode="O" horiz-adv-x="1478" d="M111 715v15q-1 137 35 263q38 133 116 235.5t197 164t280 61.5q162 0 281 -61.5t196.5 -164t115.5 -235.5q36 -126 36 -264v-14q-2 -164 -42 -300t-119 -233.5t-196.5 -152t-271.5 -54.5t-271.5 54.5t-196 152t-118.5 233.5t-42 300zM252 715q0 -115 28.5 -224.5 t89 -197.5t151.5 -141.5t218 -53.5q125 0 217.5 53.5t152.5 141.5t89 197.5t29 224.5q0 113 -29 223.5t-89 198.5t-152.5 141t-217.5 53q-127 0 -218 -53t-151.5 -141t-89 -199t-28.5 -223z" />
<glyph unicode="P" horiz-adv-x="1024" d="M176 0v1430h352q201 0 322 -101.5t121 -304.5q0 -100 -36 -176t-97.5 -127t-144.5 -77t-179 -26h-197v-618h-141zM317 741h99q80 0 154.5 8.5t132 37t92 85t34.5 152.5q0 135 -73.5 209t-208.5 74h-230v-566z" />
<glyph unicode="Q" horiz-adv-x="1478" d="M111 715v15q0 137 35 263q38 133 116 235.5t197 164t280 61.5q162 0 281 -61.5t196.5 -164t115.5 -235.5q36 -126 36 -264v-14q-4 -252 -97 -434.5t-274 -255.5l301 -291h-188l-254 252q-29 -6 -57.5 -8.5t-59.5 -2.5q-154 0 -271.5 54.5t-196 152t-118.5 233.5t-42 300z M252 715q0 -115 28.5 -224.5t89 -197.5t151.5 -141.5t218 -53.5q125 0 217.5 53.5t152.5 141.5t89 197.5t29 224.5q0 113 -29 223.5t-89 198.5t-152.5 141t-217.5 53q-127 0 -218 -53t-151.5 -141t-89 -199t-28.5 -223z" />
<glyph unicode="R" d="M180 0v1430h369q190 0 305 -87.5t115 -283.5q0 -70 -24.5 -126t-67.5 -99t-101.5 -70t-124.5 -35v-4q43 -6 71 -19.5t47 -36t34.5 -51t32.5 -65.5l243 -553h-155l-207 483q-31 70 -59.5 108t-60.5 56.5t-70 22.5t-89 4h-116v-674h-142zM322 797h149q61 0 124.5 13t115 44 t84 81t32.5 124q0 88 -28.5 137t-77.5 73.5t-114.5 31t-139.5 6.5h-145v-510z" />
<glyph unicode="S" horiz-adv-x="1024" d="M119 1081q0 86 34.5 155t96 118t144.5 74.5t177 25.5q53 0 130 -9t151 -38l-23 -129q-47 27 -117.5 40t-142.5 13q-55 0 -110.5 -12t-99.5 -41t-71.5 -76t-27.5 -117q0 -72 48 -123t122 -95t158 -86t157.5 -97t121.5 -128t48 -177q0 -109 -42 -185.5t-109.5 -125 t-151.5 -71t-166 -22.5q-104 0 -185 18.5t-138 43.5l14 145q63 -41 139 -62.5t177 -21.5q66 0 124 17.5t102 53.5t69.5 91t25.5 131q0 70 -48 122t-122 98t-158 90t-157.5 97.5t-121.5 121t-48 161.5z" />
<glyph unicode="T" horiz-adv-x="1024" d="M20 1307v123h986v-123h-422v-1307h-142v1307h-422z" />
<glyph unicode="U" horiz-adv-x="1366" d="M166 500v930h141v-930q0 -88 23.5 -162t72 -127t119 -83t162.5 -30t163 30t119 83t71.5 127t23.5 162v930h141v-930q0 -158 -51 -260.5t-129 -161t-169 -81t-169 -22.5t-169 22.5t-169 81t-129 161t-51 260.5z" />
<glyph unicode="V" horiz-adv-x="1251" d="M12 1430h150l461 -1289l477 1289h139l-543 -1430h-151z" />
<glyph unicode="W" horiz-adv-x="1933" d="M18 1430h146l352 -1270h4l367 1270h170l360 -1270h4l359 1270h135l-414 -1430h-168l-362 1270h-4l-369 -1270h-170z" />
<glyph unicode="X" horiz-adv-x="1251" d="M14 0l533 752l-479 678h165l402 -578l405 578h158l-481 -678l520 -752h-172l-436 651l-453 -651h-162z" />
<glyph unicode="Y" horiz-adv-x="1251" d="M25 1430h163l437 -699l448 699h154l-531 -824v-606h-141v606z" />
<glyph unicode="Z" horiz-adv-x="1024" d="M43 0v123l745 1184h-727v123h877v-123l-741 -1184h766v-123h-920z" />
<glyph unicode="[" horiz-adv-x="569" d="M141 -287v1835h332v-98h-203v-1638h203v-99h-332z" />
<glyph unicode="\" horiz-adv-x="569" d="M-63 1454h141l555 -1479h-141z" />
<glyph unicode="]" horiz-adv-x="569" d="M96 -188h203v1638h-203v98h332v-1835h-332v99z" />
<glyph unicode="^" horiz-adv-x="1228" d="M102 543l447 887h131l446 -887h-145l-367 745l-366 -745h-146z" />
<glyph unicode="_" horiz-adv-x="1024" d="M0 -154h1024v-102h-1024v102z" />
<glyph unicode="`" horiz-adv-x="454" d="M-8 1466h162l190 -295h-94z" />
<glyph unicode="a" horiz-adv-x="1024" d="M82 270q0 131 62.5 205t157.5 110t208 44t215 8h25v53q0 135 -53.5 201.5t-184.5 66.5q-82 0 -159 -19t-148 -67v125q31 14 68.5 27.5t79.5 23t83 15.5t76 6q195 0 281 -92t86 -297v-461q0 -63 1 -114.5t9 -104.5h-127v168h-4q-23 -47 -58.5 -83t-81 -60.5t-94.5 -37 t-98 -12.5q-111 0 -178.5 33t-104.5 79t-49 97.5t-12 85.5zM223 274q0 -102 63.5 -145t153.5 -43q113 0 176.5 43t92 103.5t35 124t6.5 106.5v63h-37q-84 0 -171 -7t-158 -32.5t-116 -76t-45 -136.5z" />
<glyph unicode="b" d="M150 0v1536h129v-668h4q6 18 29.5 52t63.5 67t97 57.5t135 24.5q115 0 197 -41t134 -113.5t75.5 -173t23.5 -219.5q0 -117 -26.5 -216t-80.5 -173t-135 -116t-188 -42q-113 0 -192.5 45.5t-132.5 145.5h-4v-166h-129zM279 522q0 -72 16 -148.5t52 -141t95.5 -105.5 t145.5 -41q92 0 151.5 40t95 102.5t49 140t13.5 153.5t-13.5 154t-49 140.5t-95 102t-151.5 39.5q-88 0 -147.5 -40.5t-95.5 -105t-51 -141.5t-15 -149z" />
<glyph unicode="c" horiz-adv-x="909" d="M84 522q0 121 37 221.5t104.5 173t162.5 112.5t212 40q94 0 158.5 -15.5t93.5 -25.5l-10 -123q-53 23 -111.5 38t-112.5 15q-94 0 -167.5 -32.5t-124 -90t-76 -138.5t-25.5 -175q0 -90 25.5 -169t75 -138t120 -94t158.5 -35q61 0 118.5 12.5t117.5 34.5l12 -121 q-66 -23 -130.5 -30t-137.5 -7q-127 0 -220.5 44t-156 120t-93 175.5t-30.5 207.5z" />
<glyph unicode="d" d="M100 522q0 119 23.5 219.5t76 173t134.5 113.5t196 41q76 0 134.5 -24.5t98.5 -57.5t63.5 -66.5t29.5 -52.5h4v668h129v-1536h-129v166h-4q-53 -100 -133 -145.5t-193 -45.5q-109 0 -188.5 42t-133.5 116t-81 173.5t-27 215.5zM242 522q0 -76 13 -153.5t49 -140 t95.5 -102.5t151.5 -40q86 0 145.5 41t95 105.5t52 141.5t16.5 148q0 72 -16.5 149t-52 141.5t-95 105t-145.5 40.5q-92 0 -151.5 -39.5t-95.5 -102t-49 -140.5t-13 -154z" />
<glyph unicode="e" horiz-adv-x="1024" d="M84 522q0 119 31.5 220.5t89 173t139.5 112.5t180 41q111 0 190 -42t129 -112.5t73.5 -165t23.5 -198.5v-66h-715q0 -84 22.5 -156.5t65.5 -125.5t107.5 -85t148.5 -32q35 0 77 7t82 17.5t76 25t58 28.5v-131q-68 -29 -149.5 -43.5t-153.5 -14.5q-129 0 -220 41 t-147.5 115t-82 174.5t-25.5 216.5zM225 596h574q0 68 -14.5 133.5t-46 116.5t-83 81.5t-123.5 30.5t-128 -32.5t-96 -83.5t-61.5 -117t-21.5 -129z" />
<glyph unicode="f" horiz-adv-x="681" d="M39 934v110h211v76q0 82 5 161t31.5 141.5t83 100.5t156.5 38q31 0 67 -5.5t54 -15.5l-8 -113q-20 10 -47 16.5t-55 6.5q-66 0 -98.5 -32t-46 -79t-13.5 -102v-102v-91h235v-110h-235v-934h-129v934h-211z" />
<glyph unicode="g" d="M100 522q0 119 23.5 219.5t76 173t134.5 113.5t196 41q51 0 95.5 -5t83.5 -20.5t74.5 -43t72.5 -74.5h4v118h129v-958q0 -109 -25.5 -205t-84 -167.5t-151.5 -113.5t-228 -42q-104 0 -189.5 21.5t-126.5 33.5l11 129q59 -31 140 -52.5t167 -21.5q125 0 196.5 42 t108.5 116t46 171t9 208h-4q-53 -115 -135 -160t-182 -45q-125 0 -210 49t-136.5 125t-73 169t-21.5 179zM242 522q0 -78 16 -151.5t52 -131t93.5 -93t139.5 -35.5q88 0 148.5 37.5t98 97t54 132.5t16.5 144q0 94 -15.5 174t-51 138.5t-95 91t-147.5 32.5 q-92 0 -151.5 -39.5t-95.5 -102t-49 -140.5t-13 -154z" />
<glyph unicode="h" d="M162 0v1536h129v-668h4q41 86 125 143.5t201 57.5q104 0 173.5 -32.5t109.5 -92t56.5 -141.5t16.5 -178v-625h-129v623q0 68 -9.5 128t-35 106t-74.5 73.5t-129 27.5q-86 0 -145.5 -36.5t-95 -94t-52 -129t-16.5 -139.5v-559h-129z" />
<glyph unicode="i" horiz-adv-x="454" d="M162 0v1044h129v-1044h-129zM162 1323v172h129v-172h-129z" />
<glyph unicode="j" horiz-adv-x="454" d="M-57 -319q14 -4 36.5 -8.5t40.5 -4.5q49 0 78 16.5t42.5 44t17.5 63.5t4 77v1175h129v-1191q0 -63 -10.5 -116.5t-37 -93.5t-72.5 -62.5t-116 -22.5q-41 0 -68.5 3t-43.5 7v113zM162 1323v172h129v-172h-129z" />
<glyph unicode="k" horiz-adv-x="1024" d="M162 0v1536h129v-920l467 428h166l-510 -462l571 -582h-178l-516 537v-537h-129z" />
<glyph unicode="l" horiz-adv-x="454" d="M162 0v1536h129v-1536h-129z" />
<glyph unicode="m" horiz-adv-x="1705" d="M154 1044h125v-176l4 -2q14 27 35.5 62t58.5 66.5t92 53t139 21.5q35 0 78 -9t83 -34t71.5 -68t44.5 -110h4q35 92 123 156.5t211 64.5q80 0 141 -26.5t103 -72.5t63.5 -110.5t21.5 -140.5v-719h-129v694q0 55 -11 103.5t-36.5 84.5t-68.5 56t-105 20q-53 0 -103 -22.5 t-90 -69.5t-63.5 -118.5t-23.5 -169.5v-578h-129v694q0 55 -11.5 103.5t-37 84.5t-68.5 56t-105 20q-53 0 -103 -22.5t-90 -69.5t-63.5 -118.5t-23.5 -169.5v-578h-129v799q0 59 -1 120.5t-7 124.5z" />
<glyph unicode="n" d="M154 1044h125v-186h4q16 35 40.5 73t63.5 68.5t95.5 50t138.5 19.5q96 0 163.5 -30.5t110.5 -84t62.5 -127t19.5 -159.5v-668h-129v635q0 147 -57.5 235t-190.5 88q-88 0 -147.5 -34.5t-95 -90t-51 -123t-15.5 -132.5v-578h-129v799q0 59 -1 120.5t-7 124.5z" />
<glyph unicode="o" d="M82 522q0 106 28.5 205.5t88 175.5t151.5 121t219 45t219.5 -45t151.5 -121t88 -175t29 -206q0 -106 -29 -205.5t-88 -175t-151.5 -121t-219.5 -45.5t-219 45.5t-151.5 121t-88 175t-28.5 205.5zM223 522q0 -90 22.5 -170t66.5 -139t108.5 -93t148.5 -34t148.5 34 t108.5 93t66.5 139t22.5 170t-22.5 170t-66.5 139.5t-108.5 93t-148.5 33.5t-148.5 -33.5t-108.5 -93t-66.5 -139.5t-22.5 -170z" />
<glyph unicode="p" d="M150 -430v1474h129l-9 -190h4q12 20 35 57t62 72t96 60.5t141 25.5q115 0 197 -41t134 -113.5t75.5 -173t23.5 -219.5q0 -117 -26.5 -216t-80.5 -173t-135 -116t-188 -42q-123 0 -200.5 50.5t-124.5 152.5h-4v-608h-129zM279 522q0 -72 16 -148.5t52 -141t95.5 -105.5 t145.5 -41q92 0 151.5 40t95 102.5t49 140t13.5 153.5t-13.5 154t-49 140.5t-95 102t-151.5 39.5q-86 0 -145.5 -40.5t-95.5 -105t-52 -141.5t-16 -149z" />
<glyph unicode="q" d="M100 522q0 119 23.5 219.5t76 173t134.5 113.5t196 41q82 0 140.5 -25.5t96.5 -58.5t58.5 -64.5t30.5 -46.5h4v170h129v-1474h-129v608h-4q-47 -102 -125 -152.5t-201 -50.5q-109 0 -188.5 42t-133.5 116t-81 173.5t-27 215.5zM242 522q0 -76 13 -153.5t49 -140 t95.5 -102.5t151.5 -40q86 0 145.5 41t95 105.5t52 141.5t16.5 148q0 72 -16.5 149t-52 141.5t-95 105t-145.5 40.5q-92 0 -151.5 -39.5t-95.5 -102t-49 -140.5t-13 -154z" />
<glyph unicode="r" horiz-adv-x="681" d="M154 1044h129v-200h4q18 43 42.5 84t58.5 72.5t76 50t91 18.5q23 0 48.5 -4t41.5 -8v-135q-41 12 -94 12q-78 0 -128 -39t-79 -99.5t-41 -135t-12 -144.5v-516h-129v811v73.5t-1 57.5t-3 50.5t-4 51.5z" />
<glyph unicode="s" horiz-adv-x="796" d="M70 25l12 127q59 -29 128 -47.5t144 -18.5q45 0 87 12.5t75 36t51.5 58t18.5 79.5q0 61 -37 102.5t-93.5 73t-121 60.5t-120.5 64.5t-93 86t-37 125.5q0 78 28.5 132.5t77 88t108.5 49t126 15.5q41 0 114.5 -10t143.5 -37l-12 -113q-51 23 -114.5 36t-117.5 13 q-100 0 -162.5 -36.5t-62.5 -137.5q0 -49 38 -81.5t95 -61.5t124 -57.5t124 -69.5t95 -98.5t38 -143.5q0 -84 -35 -140t-88 -91t-117.5 -50.5t-124.5 -15.5q-76 0 -149.5 10.5t-142.5 39.5z" />
<glyph unicode="t" horiz-adv-x="681" d="M41 934v110h205v252l129 45v-297h237v-110h-237v-676q0 -72 30.5 -122t108.5 -50q37 0 63.5 7t55.5 18l8 -107q-23 -10 -67 -19.5t-91 -9.5q-86 0 -134 28t-70.5 75t-27.5 110.5t-5 135.5v610h-205z" />
<glyph unicode="u" d="M162 377v667h129v-634q0 -147 57.5 -235.5t190.5 -88.5q88 0 147 35t95 90t51.5 122.5t15.5 133.5v577h129v-798q0 -59 1 -121t7 -125h-125v186h-4q-16 -35 -40.5 -72.5t-63.5 -68.5t-95.5 -50.5t-138.5 -19.5q-96 0 -163.5 31t-110.5 84t-62.5 127t-19.5 160z" />
<glyph unicode="v" horiz-adv-x="909" d="M18 1044h142l289 -903h4l303 903h135l-367 -1044h-151z" />
<glyph unicode="w" horiz-adv-x="1593" d="M14 1044h142l274 -903h4l291 903h156l276 -903h4l289 903h129l-344 -1044h-156l-284 903h-4l-285 -903h-156z" />
<glyph unicode="x" horiz-adv-x="909" d="M16 0l367 553l-332 491h160l248 -389l252 389h147l-323 -491l358 -553h-160l-274 451l-293 -451h-150z" />
<glyph unicode="y" horiz-adv-x="909" d="M18 1044h142l293 -872l-2 2h4l301 870h135l-418 -1200q-18 -53 -41.5 -105t-56.5 -92t-74 -64.5t-96 -24.5q-70 0 -139 16l12 111q18 -6 39.5 -11.5t56.5 -5.5q82 0 120 62.5t68 165.5l27 92z" />
<glyph unicode="z" horiz-adv-x="909" d="M66 0v109l628 825h-604v110h754v-110l-629 -823h629v-111h-778z" />
<glyph unicode="{" horiz-adv-x="569" d="M78 582v98q41 0 71.5 21.5t50 59.5t29 88t9.5 107v344q0 119 60 183.5t148 64.5h113v-98h-102q-49 0 -69.5 -58.5t-20.5 -131.5v-338q0 -74 -20.5 -127.5t-48.5 -87t-56.5 -52t-46.5 -22.5v-4q18 -4 46.5 -21.5t56.5 -52.5t48.5 -89t20.5 -130v-332q0 -76 20.5 -134 t69.5 -58h102v-99h-115q-86 0 -146 65.5t-60 184.5v348q0 55 -9.5 104.5t-29 86.5t-50 58.5t-71.5 21.5z" />
<glyph unicode="|" horiz-adv-x="454" d="M158 -25v1561h141v-1561h-141z" />
<glyph unicode="}" horiz-adv-x="569" d="M10 -188h103q49 0 69.5 58t20.5 132v338q0 74 20.5 127t48 87t56 52.5t47.5 22.5v4q-18 4 -47 21.5t-56.5 52t-48 88t-20.5 131.5v331q0 76 -20.5 134.5t-69.5 58.5h-103v98h115q86 0 146.5 -65.5t60.5 -184.5v-348q0 -55 9 -104t28.5 -86t50.5 -58.5t72 -21.5v-98 q-41 0 -72 -21.5t-50.5 -59.5t-28.5 -88.5t-9 -107.5v-344q0 -119 -60.5 -183.5t-148.5 -64.5h-113v99z" />
<glyph unicode="~" horiz-adv-x="1228" d="M141 477q16 33 40 65.5t54.5 59.5t70.5 44.5t91 17.5q57 0 116.5 -23t117.5 -51q59 -29 110.5 -52.5t92.5 -23.5q61 0 103 47t77 103l73 -105q-16 -33 -39.5 -65.5t-54 -59t-70.5 -44t-92 -17.5q-57 0 -115.5 23.5t-117.5 52.5t-110.5 51t-92.5 22q-61 0 -103 -47 t-77 -102z" />
<glyph unicode="&#xa1;" horiz-adv-x="796" d="M315 -385l25 1083h117l24 -1083h-166zM315 872v172h166v-172h-166z" />
<glyph unicode="&#xa2;" d="M203 522q0 121 36.5 221.5t104.5 173t163 112.5t212 40h35.5t33.5 -4l46 139h96l-51 -151q33 -6 55 -13.5t37 -11.5l-10 -123q-29 12 -58 21.5t-59 17.5l-275 -823q74 -35 154 -35q61 0 118.5 12.5t116.5 34.5l13 -121q-66 -23 -130.5 -30t-138.5 -7q-47 0 -89 6.5 t-83 22.5l-63 -190h-96l75 225q-123 68 -183 199t-60 284zM344 522q0 -109 38 -201t107 -151l263 786q-6 2 -15 2q-94 0 -167.5 -32.5t-124 -90t-76 -138.5t-25.5 -175z" />
<glyph unicode="&#xa3;" d="M137 0v123h211v588h-186v110h186v101q0 98 19.5 192t69.5 167t137.5 118t222.5 45q80 0 141 -14.5t88 -28.5l-20 -127q-29 16 -80.5 31.5t-128.5 15.5q-104 0 -165 -38t-92.5 -97.5t-41 -133t-9.5 -143.5v-88h340v-110h-340v-588h504v-123h-856z" />
<glyph unicode="&#xa4;" d="M55 289l117 112q-111 137 -111 314q0 82 26 162.5t85 146.5l-117 113l88 92l117 -115q63 53 145 81t164 28q86 0 166 -28t146 -81l110 115l92 -92l-110 -113q53 -63 78.5 -144t25.5 -165q0 -86 -25.5 -167t-78.5 -147l110 -112l-92 -88l-110 114q-61 -53 -142.5 -80.5 t-169.5 -27.5q-86 0 -165.5 26.5t-143.5 81.5l-117 -114zM203 715q0 -84 28.5 -156t77.5 -124t115.5 -80.5t144.5 -24.5q82 0 149.5 31.5t116 84t75 122t26.5 147.5q0 76 -26.5 145.5t-76 122.5t-117 85t-147.5 32q-78 -4 -145.5 -36t-116.5 -84t-76.5 -120.5t-27.5 -144.5z " />
<glyph unicode="&#xa5;" d="M39 1430h156l374 -691l385 691h146l-398 -709h234v-98h-289l-6 -13v-153h295v-99h-295v-358h-141v358h-295v99h295v153l-6 13h-289v98h233z" />
<glyph unicode="&#xa6;" horiz-adv-x="454" d="M158 -25v545h141v-545h-141zM158 991v545h141v-545h-141z" />
<glyph unicode="&#xa7;" d="M182 635q0 41 14.5 78t37 69.5t51 61t59.5 55.5l18 16l-14 9q-63 37 -108 90t-45 133q0 84 34.5 142.5t89 95t120 53t126.5 16.5q94 0 172 -14.5t125 -30.5l-14 -119q-16 8 -44 17.5t-60.5 17.5t-69.5 13t-70 5q-37 0 -84 -9t-88 -29.5t-68.5 -54t-27.5 -81.5 q0 -68 45 -110.5t113.5 -76.5t148.5 -63.5t148.5 -70.5t113.5 -98.5t45 -145.5q0 -47 -12 -85t-33.5 -70.5t-49.5 -62.5t-58 -60q63 -35 111 -95.5t48 -146.5q0 -98 -46 -161.5t-111.5 -101.5t-137 -52.5t-120.5 -14.5q-180 0 -346 58l14 120q78 -35 162 -51t170 -16 q45 0 94 13t89 39t65.5 67t25.5 96q0 63 -47 103t-116.5 72t-152.5 60.5t-153 69.5t-117 99.5t-47 150.5zM324 643q0 -53 35.5 -95t97.5 -69l239 -104l43 43q35 35 56.5 73.5t21.5 88.5q0 43 -14.5 73.5t-38 54t-55 41t-68.5 33.5l-178 84l-14 -8q-14 -8 -36 -28.5 t-41.5 -48t-33.5 -63.5t-14 -75z" />
<glyph unicode="&#xa8;" horiz-adv-x="454" d="M-25 1237v172h154v-172h-154zM326 1237v172h153v-172h-153z" />
<glyph unicode="&#xa9;" horiz-adv-x="1638" d="M80 715q0 154 58.5 288t158.5 234t234.5 158.5t287.5 58.5q154 0 288 -58.5t234.5 -158.5t159 -234.5t58.5 -287.5q0 -154 -58.5 -288t-159 -234.5t-234.5 -159t-288 -58.5t-288 58.5t-234 159t-158.5 234.5t-58.5 288zM221 715q0 -133 45 -248t126 -200t190.5 -133 t238.5 -48q127 0 236.5 48t189.5 133t125 200t45 248t-45 247.5t-125 199.5t-189.5 133t-236.5 48q-129 0 -238.5 -48t-190.5 -133t-126 -199.5t-45 -247.5zM403 715q0 100 30 185t86 146.5t137 96.5t184 35q141 0 243.5 -78t124.5 -232h-123q-18 90 -81.5 144.5 t-161.5 54.5q-72 0 -127.5 -26.5t-93 -72.5t-57 -110.5t-19.5 -140.5q0 -72 20.5 -135.5t59.5 -111.5t95 -76.5t126 -28.5q98 0 160.5 57t78.5 151h125q-31 -147 -130 -233t-234 -86q-100 0 -182 36t-139.5 97.5t-89.5 145t-32 182.5z" />
<glyph unicode="&#xaa;" horiz-adv-x="665" d="M49 981q0 82 41 127t102.5 67.5t136 27.5t142.5 5h16v31q0 18 -3 41t-17 42t-44 32.5t-81 13.5q-53 0 -103.5 -11t-97.5 -38v94q39 14 93.5 27.5t119.5 13.5q125 0 181.5 -60.5t56.5 -172.5v-277q0 -37 1 -67.5t5 -65.5h-102v98h-4q-23 -53 -82.5 -83.5t-124.5 -30.5 q-129 0 -182.5 51t-53.5 135zM154 991q0 -59 41 -84.5t100 -25.5q74 -4 112.5 19.5t57 57t20.5 69.5t2 58v37h-24q-51 0 -106.5 -5t-100.5 -19.5t-73.5 -40t-28.5 -66.5z" />
<glyph unicode="&#xab;" d="M186 551l287 420h121l-272 -420l272 -420h-121zM545 551l286 420h121l-272 -420l272 -420h-121z" />
<glyph unicode="&#xac;" horiz-adv-x="1228" d="M94 653v142h1039v-562h-142v420h-897z" />
<glyph unicode="&#xad;" horiz-adv-x="681" d="M84 481v142h514v-142h-514z" />
<glyph unicode="&#xae;" horiz-adv-x="1638" d="M80 715q0 154 58.5 288t158.5 234t234.5 158.5t287.5 58.5q154 0 288 -58.5t234.5 -158.5t159 -234.5t58.5 -287.5q0 -154 -58.5 -288t-159 -234.5t-234.5 -159t-288 -58.5t-288 58.5t-234 159t-158.5 234.5t-58.5 288zM221 715q0 -133 45 -248t126 -200t190.5 -133 t238.5 -48q127 0 236.5 48t189.5 133t125 200t45 248t-45 247.5t-125 199.5t-189.5 133t-236.5 48q-129 0 -238.5 -48t-190.5 -133t-126 -199.5t-45 -247.5zM537 283v866h331q297 0 297 -244q0 -104 -60.5 -171.5t-162.5 -67.5l246 -383h-150l-241 383h-119v-383h-141z M678 776h168q82 0 130 25.5t48 109.5q0 37 -15.5 61.5t-40 39t-57 20.5t-65.5 6h-168v-262z" />
<glyph unicode="&#xaf;" horiz-adv-x="454" d="M-23 1257v111h500v-111h-500z" />
<glyph unicode="&#xb0;" horiz-adv-x="819" d="M86 1139q0 68 25.5 124t70.5 96t103.5 62.5t124.5 22.5t124 -22.5t103 -62.5t70.5 -96.5t25.5 -123.5q0 -68 -25.5 -124.5t-70.5 -96t-103.5 -62t-123.5 -22.5q-66 0 -124.5 22.5t-103.5 62t-70.5 96t-25.5 124.5zM190 1139q0 -43 18.5 -81t49.5 -65.5t70 -44t82 -16.5 t81.5 16.5t69.5 44t49.5 65.5t18.5 81q0 98 -62.5 152.5t-156.5 54.5t-157 -54.5t-63 -152.5z" />
<glyph unicode="&#xb1;" horiz-adv-x="1228" d="M94 0v141h1039v-141h-1039zM94 551v141h449v346h141v-346h449v-141h-449v-346h-141v346h-449z" />
<glyph unicode="&#xb2;" horiz-adv-x="739" d="M92 582v84l217 194q43 41 82 84t68.5 87t47 86t17.5 83q0 70 -47 108t-112 38q-61 0 -115.5 -16.5t-108.5 -45.5l-16 102q53 27 116.5 42.5t123.5 15.5q57 0 108 -13.5t88 -42t58.5 -73.5t21.5 -109q0 -63 -23.5 -118.5t-58.5 -103.5t-79 -91t-83 -80l-151 -133h403v-98 h-557z" />
<glyph unicode="&#xb3;" horiz-adv-x="739" d="M70 602l10 107q61 -25 121.5 -34t124.5 -9q41 0 79.5 11t68.5 30.5t48.5 49t18.5 66.5q2 57 -29 88t-75 45.5t-93 16.5t-84 2h-57v98h57q33 0 80 4t91 19.5t75 45t31 79.5q0 43 -22.5 67.5t-54.5 37.5t-67 16.5t-61 3.5q-57 0 -110.5 -12.5t-100.5 -35.5l-8 107 q25 10 56.5 17.5t64 12.5t65.5 7t57 2q51 0 104.5 -11.5t96.5 -38t69.5 -67.5t26.5 -98q0 -78 -54 -130t-140 -71v-4q98 -4 148 -65.5t50 -147.5q0 -66 -31.5 -112t-80.5 -74.5t-109.5 -43t-120.5 -14.5q-70 0 -128 7.5t-117 27.5z" />
<glyph unicode="&#xb4;" horiz-adv-x="454" d="M109 1171l190 295h162l-258 -295h-94z" />
<glyph unicode="&#xb6;" horiz-adv-x="1228" d="M98 1036q0 199 126 296.5t341 97.5h492v-1651h-129v1540h-275v-1540h-129v876q-92 0 -171 30t-135 81t-88 120.5t-32 149.5z" />
<glyph unicode="&#xb7;" horiz-adv-x="569" d="M188 637q0 47 32 72.5t67 25.5t65.5 -25.5t30.5 -72.5t-30.5 -72.5t-65.5 -23.5q-35 -2 -67 23.5t-32 72.5z" />
<glyph unicode="&#xb8;" horiz-adv-x="454" d="M14 -334l15 76q10 -6 29.5 -16.5t44 -19.5t52 -16t56.5 -7q47 0 76.5 18t29.5 57q0 35 -21.5 55.5t-55.5 20.5q-47 0 -86 -8l59 174h55l-39 -111q14 2 33 4.5t35 2.5q61 0 105 -34t44 -100q0 -45 -21.5 -72.5t-55 -43t-73.5 -20.5t-75 -5q-33 0 -66.5 6t-63.5 14.5 t-50.5 15.5t-26.5 9z" />
<glyph unicode="&#xb9;" horiz-adv-x="739" d="M158 1280l211 164h106v-862h-117v749l-155 -119z" />
<glyph unicode="&#xba;" horiz-adv-x="739" d="M47 1122q0 66 18.5 126.5t58.5 106.5t100.5 72.5t146.5 26.5q84 0 145.5 -26.5t100 -71.5t57 -105.5t18.5 -128.5q0 -63 -18.5 -121.5t-57 -104.5t-100 -73.5t-145.5 -27.5q-86 0 -146.5 26.5t-100.5 71.5t-58.5 104t-18.5 125zM152 1122q0 -104 57 -172.5t162 -68.5 q104 0 160.5 68.5t56.5 172.5q0 49 -14.5 93.5t-42 78t-68.5 54t-92 20.5t-92 -20.5t-69 -54t-43 -78t-15 -93.5z" />
<glyph unicode="&#xbb;" d="M186 131l273 420l-273 420h121l287 -420l-287 -420h-121zM545 131l272 420l-272 420h121l286 -420l-286 -420h-121z" />
<glyph unicode="&#xbc;" horiz-adv-x="1708" d="M145 1280l211 164h107v-862h-117v749l-156 -119zM266 -45l908 1520h116l-907 -1520h-117zM883 186v101l426 575h139v-577h115v-99h-115v-186h-117v186h-448zM999 285h332v436h-4z" />
<glyph unicode="&#xbd;" horiz-adv-x="1708" d="M121 1280l211 164h106v-862h-116v749l-156 -119zM240 -45l907 1520h117l-908 -1520h-116zM1030 0v84l217 195q43 41 82 84t68.5 87t47 86t17.5 82q0 70 -47 108t-112 38q-61 0 -115.5 -16.5t-108.5 -45.5l-16 103q53 27 116.5 42t123.5 15q57 0 108 -13t88 -42t58.5 -74 t21.5 -108t-23.5 -118.5t-58.5 -104t-79 -91.5t-83 -80l-151 -133h403v-98h-557z" />
<glyph unicode="&#xbe;" horiz-adv-x="1708" d="M109 602l10 107q61 -25 121.5 -34t124.5 -9q41 0 79.5 11t68.5 30.5t48.5 49t18.5 66.5q2 57 -29 88t-75 45.5t-93 16.5t-84 2h-57v98h57q33 0 80 4t91 19.5t74.5 45t30.5 79.5q0 43 -22.5 67.5t-54 37.5t-66.5 16.5t-61 3.5q-57 0 -110.5 -12.5t-100.5 -35.5l-8 107 q25 10 56.5 17.5t64 12.5t65.5 7t57 2q51 0 104.5 -11.5t96.5 -38t69.5 -67.5t26.5 -98q0 -78 -54 -130t-140 -71v-4q98 -4 148 -65.5t50 -147.5q0 -66 -31.5 -112t-80.5 -74.5t-109.5 -43t-120.5 -14.5q-70 0 -128 7.5t-117 27.5zM424 -45l907 1520h119l-907 -1520h-119z M922 186v101l426 575h139v-577h115v-99h-115v-186h-117v186h-448zM1038 285h332v436h-4z" />
<glyph unicode="&#xbf;" horiz-adv-x="1024" d="M156 -43q0 84 25.5 147.5t64.5 114.5t85 97t85 96.5t64.5 112t25.5 143.5v30h129v-26q0 -94 -24.5 -161t-62.5 -119t-82 -96t-82 -92t-62.5 -106.5t-24.5 -140.5q0 -115 73.5 -179.5t184.5 -64.5q84 0 152.5 17.5t134.5 40.5l6 -129q-72 -23 -147.5 -37.5t-151.5 -14.5 q-80 0 -150.5 21.5t-125 67t-86 114t-31.5 164.5zM485 872v172h166v-172h-166z" />
<glyph unicode="&#xc0;" horiz-adv-x="1366" d="M27 0l585 1430h160l567 -1430h-147l-154 383h-721l-153 -383h-137zM371 506h620l-309 788zM449 1781h162l190 -295h-94z" />
<glyph unicode="&#xc1;" horiz-adv-x="1366" d="M27 0l585 1430h160l567 -1430h-147l-154 383h-721l-153 -383h-137zM371 506h620l-309 788zM566 1486l190 295h162l-258 -295h-94z" />
<glyph unicode="&#xc2;" horiz-adv-x="1366" d="M27 0l585 1430h160l567 -1430h-147l-154 383h-721l-153 -383h-137zM371 506h620l-309 788zM410 1486l190 295h168l191 -295h-94l-181 209l-180 -209h-94z" />
<glyph unicode="&#xc3;" horiz-adv-x="1366" d="M27 0l585 1430h160l567 -1430h-147l-154 383h-721l-153 -383h-137zM371 506h620l-309 788zM402 1534q6 33 19 65.5t33.5 59t48.5 43t65 16.5q31 0 63.5 -7t61.5 -18q29 -10 53 -18t37 -8q33 0 61.5 17t38.5 52h76q-8 -55 -28.5 -91t-45.5 -55.5t-51.5 -26.5t-44.5 -7 q-35 0 -67 8t-60 19q-29 10 -52.5 17t-43.5 7q-41 0 -58.5 -18.5t-32.5 -54.5h-73z" />
<glyph unicode="&#xc4;" horiz-adv-x="1366" d="M27 0l585 1430h160l567 -1430h-147l-154 383h-721l-153 -383h-137zM371 506h620l-309 788zM432 1552v172h154v-172h-154zM783 1552v172h153v-172h-153z" />
<glyph unicode="&#xc5;" horiz-adv-x="1366" d="M27 0l585 1430h160l567 -1430h-147l-154 383h-721l-153 -383h-137zM371 506h620l-309 788zM488 1671q0 82 55 138.5t141 56.5q84 0 140.5 -56.5t56.5 -138.5q0 -84 -56.5 -139t-140.5 -55q-86 0 -141 55t-55 139zM561 1671q0 -53 37 -87t86 -34q53 0 88 34t35 87 q0 51 -34.5 86t-88.5 35q-49 0 -86 -35t-37 -86z" />
<glyph unicode="&#xc6;" horiz-adv-x="1820" d="M0 0l893 1430h780v-123h-555v-510h527v-123h-527v-551h580v-123h-719v383h-586l-237 -383h-156zM469 506h508v813h-4z" />
<glyph unicode="&#xc7;" horiz-adv-x="1366" d="M117 715q0 162 50 298t144.5 234.5t227.5 152.5t299 54q31 0 75.5 -3t92 -9t89.5 -16.5t70 -24.5l-8 -131q-68 35 -156 48t-163 13q-139 0 -247 -46t-181.5 -129t-112.5 -195.5t-39 -245.5q0 -135 38 -249t110.5 -195t181 -127t250.5 -46q35 0 77.5 3t85.5 9.5t84 18.5 t72 31l8 -123q-29 -18 -70.5 -29.5t-87.5 -18.5t-91.5 -10.5t-77.5 -3.5q-170 0 -303.5 53.5t-226.5 150.5t-142 233.5t-49 302.5zM563 -334l15 76q10 -6 29.5 -16.5t44 -19.5t52 -16t56.5 -7q47 0 76.5 18t29.5 57q0 35 -21.5 55.5t-55.5 20.5q-47 0 -86 -8l59 174h55 l-39 -111q14 2 33 4.5t35 2.5q61 0 105 -34t44 -100q0 -45 -21.5 -72.5t-55 -43t-73.5 -20.5t-75 -5q-33 0 -66.5 6t-63.5 14.5t-50.5 15.5t-26.5 9z" />
<glyph unicode="&#xc8;" horiz-adv-x="1024" d="M176 0v1430h701v-123h-560v-510h531v-123h-531v-551h584v-123h-725zM277 1781h162l190 -295h-94z" />
<glyph unicode="&#xc9;" horiz-adv-x="1024" d="M176 0v1430h701v-123h-560v-510h531v-123h-531v-551h584v-123h-725zM394 1486l190 295h162l-258 -295h-94z" />
<glyph unicode="&#xca;" horiz-adv-x="1024" d="M176 0v1430h701v-123h-560v-510h531v-123h-531v-551h584v-123h-725zM238 1486l190 295h168l191 -295h-94l-181 209l-180 -209h-94z" />
<glyph unicode="&#xcb;" horiz-adv-x="1024" d="M176 0v1430h701v-123h-560v-510h531v-123h-531v-551h584v-123h-725zM260 1552v172h154v-172h-154zM611 1552v172h153v-172h-153z" />
<glyph unicode="&#xcc;" horiz-adv-x="454" d="M-8 1781h162l190 -295h-94zM158 0v1430h141v-1430h-141z" />
<glyph unicode="&#xcd;" horiz-adv-x="454" d="M109 1486l190 295h162l-258 -295h-94zM158 0v1430h141v-1430h-141z" />
<glyph unicode="&#xce;" horiz-adv-x="454" d="M-47 1486l190 295h168l191 -295h-94l-181 209l-180 -209h-94zM158 0v1430h141v-1430h-141z" />
<glyph unicode="&#xcf;" horiz-adv-x="454" d="M-25 1552v172h154v-172h-154zM158 0v1430h141v-1430h-141zM326 1552v172h153v-172h-153z" />
<glyph unicode="&#xd0;" horiz-adv-x="1366" d="M23 674v123h141v633h242q193 0 346 -40t260.5 -126t164 -221.5t56.5 -325.5q0 -195 -61.5 -331t-171 -222t-259 -125t-327.5 -39h-250v674h-141zM305 123h117q152 0 275.5 32.5t210.5 104.5t135.5 186.5t48.5 278.5q0 172 -49.5 284.5t-140.5 178t-219 92.5t-284 27h-94 v-510h436v-123h-436v-551z" />
<glyph unicode="&#xd1;" horiz-adv-x="1366" d="M158 0v1430h178l727 -1258h4v1258h141v-1430h-190l-715 1233h-4v-1233h-141zM402 1534q6 33 19 65.5t33.5 59t48.5 43t65 16.5q31 0 63.5 -7t61.5 -18q29 -10 53 -18t37 -8q33 0 61.5 17t38.5 52h76q-8 -55 -28.5 -91t-45.5 -55.5t-51.5 -26.5t-44.5 -7q-35 0 -67 8 t-60 19q-29 10 -52.5 17t-43.5 7q-41 0 -58.5 -18.5t-32.5 -54.5h-73z" />
<glyph unicode="&#xd2;" horiz-adv-x="1478" d="M111 715q-2 145 35.5 278t115.5 235.5t197 164t280 61.5q162 0 281 -61.5t196.5 -164t115.5 -235.5t36 -278q-2 -164 -42 -300t-119 -233.5t-196.5 -152t-271.5 -54.5t-271.5 54.5t-196 152t-118.5 233.5t-42 300zM252 715q0 -115 28.5 -224.5t89 -197.5t151.5 -141.5 t218 -53.5q125 0 217.5 53.5t152.5 141.5t89 197.5t29 224.5q0 113 -29 223.5t-89 198.5t-152.5 141t-217.5 53q-127 0 -218 -53t-151.5 -141t-89 -199t-28.5 -223zM504 1781h162l190 -295h-94z" />
<glyph unicode="&#xd3;" horiz-adv-x="1478" d="M111 715q-2 145 35.5 278t115.5 235.5t197 164t280 61.5q162 0 281 -61.5t196.5 -164t115.5 -235.5t36 -278q-2 -164 -42 -300t-119 -233.5t-196.5 -152t-271.5 -54.5t-271.5 54.5t-196 152t-118.5 233.5t-42 300zM252 715q0 -115 28.5 -224.5t89 -197.5t151.5 -141.5 t218 -53.5q125 0 217.5 53.5t152.5 141.5t89 197.5t29 224.5q0 113 -29 223.5t-89 198.5t-152.5 141t-217.5 53q-127 0 -218 -53t-151.5 -141t-89 -199t-28.5 -223zM621 1486l190 295h162l-258 -295h-94z" />
<glyph unicode="&#xd4;" horiz-adv-x="1478" d="M111 715q-2 145 35.5 278t115.5 235.5t197 164t280 61.5q162 0 281 -61.5t196.5 -164t115.5 -235.5t36 -278q-2 -164 -42 -300t-119 -233.5t-196.5 -152t-271.5 -54.5t-271.5 54.5t-196 152t-118.5 233.5t-42 300zM252 715q0 -115 28.5 -224.5t89 -197.5t151.5 -141.5 t218 -53.5q125 0 217.5 53.5t152.5 141.5t89 197.5t29 224.5q0 113 -29 223.5t-89 198.5t-152.5 141t-217.5 53q-127 0 -218 -53t-151.5 -141t-89 -199t-28.5 -223zM465 1486l190 295h168l191 -295h-94l-181 209l-180 -209h-94z" />
<glyph unicode="&#xd5;" horiz-adv-x="1478" d="M111 715q-2 145 35.5 278t115.5 235.5t197 164t280 61.5q162 0 281 -61.5t196.5 -164t115.5 -235.5t36 -278q-2 -164 -42 -300t-119 -233.5t-196.5 -152t-271.5 -54.5t-271.5 54.5t-196 152t-118.5 233.5t-42 300zM252 715q0 -115 28.5 -224.5t89 -197.5t151.5 -141.5 t218 -53.5q125 0 217.5 53.5t152.5 141.5t89 197.5t29 224.5q0 113 -29 223.5t-89 198.5t-152.5 141t-217.5 53q-127 0 -218 -53t-151.5 -141t-89 -199t-28.5 -223zM457 1534q6 33 19 65.5t33.5 59t48.5 43t65 16.5q31 0 63.5 -7t61.5 -18q29 -10 53 -18t37 -8q33 0 61.5 17 t38.5 52h76q-8 -55 -28.5 -91t-45.5 -55.5t-51.5 -26.5t-44.5 -7q-35 0 -67 8t-60 19q-29 10 -52.5 17t-43.5 7q-41 0 -58.5 -18.5t-32.5 -54.5h-73z" />
<glyph unicode="&#xd6;" horiz-adv-x="1478" d="M111 715q-2 145 35.5 278t115.5 235.5t197 164t280 61.5q162 0 281 -61.5t196.5 -164t115.5 -235.5t36 -278q-2 -164 -42 -300t-119 -233.5t-196.5 -152t-271.5 -54.5t-271.5 54.5t-196 152t-118.5 233.5t-42 300zM252 715q0 -115 28.5 -224.5t89 -197.5t151.5 -141.5 t218 -53.5q125 0 217.5 53.5t152.5 141.5t89 197.5t29 224.5q0 113 -29 223.5t-89 198.5t-152.5 141t-217.5 53q-127 0 -218 -53t-151.5 -141t-89 -199t-28.5 -223zM487 1552v172h154v-172h-154zM838 1552v172h153v-172h-153z" />
<glyph unicode="&#xd7;" horiz-adv-x="1228" d="M145 156l371 370l-371 369l101 100l370 -370l367 370l102 -100l-368 -369l368 -370l-102 -103l-367 373l-370 -373z" />
<glyph unicode="&#xd8;" horiz-adv-x="1478" d="M59 23l181 206q-63 92 -95 215t-34 271q-2 145 35.5 278t115.5 235.5t197 164t280 61.5q135 0 240.5 -44t183.5 -122l176 201l80 -68l-186 -215q70 -98 103.5 -225t31.5 -266q-2 -164 -42 -300t-119 -233.5t-196.5 -152t-271.5 -54.5q-141 0 -249.5 44t-184.5 126 l-166 -190zM252 715q0 -98 21.5 -193.5t66.5 -175.5l731 836q-59 70 -141 109.5t-191 39.5q-127 0 -218 -53t-151.5 -141t-89 -199t-28.5 -223zM401 254q59 -72 143.5 -114t194.5 -42q125 0 217.5 53.5t152.5 141.5t89 197.5t29 224.5q0 100 -22.5 197.5t-69.5 181.5z" />
<glyph unicode="&#xd9;" horiz-adv-x="1366" d="M166 500v930h141v-930q0 -88 23.5 -162t72 -127t119 -83t162.5 -30t163 30t119 83t71.5 127t23.5 162v930h141v-930q0 -158 -51 -260.5t-129 -161t-169 -81t-169 -22.5t-169 22.5t-169 81t-129 161t-51 260.5zM449 1781h162l190 -295h-94z" />
<glyph unicode="&#xda;" horiz-adv-x="1366" d="M166 500v930h141v-930q0 -88 23.5 -162t72 -127t119 -83t162.5 -30t163 30t119 83t71.5 127t23.5 162v930h141v-930q0 -158 -51 -260.5t-129 -161t-169 -81t-169 -22.5t-169 22.5t-169 81t-129 161t-51 260.5zM566 1486l190 295h162l-258 -295h-94z" />
<glyph unicode="&#xdb;" horiz-adv-x="1366" d="M166 500v930h141v-930q0 -88 23.5 -162t72 -127t119 -83t162.5 -30t163 30t119 83t71.5 127t23.5 162v930h141v-930q0 -158 -51 -260.5t-129 -161t-169 -81t-169 -22.5t-169 22.5t-169 81t-129 161t-51 260.5zM410 1486l190 295h168l191 -295h-94l-181 209l-180 -209h-94 z" />
<glyph unicode="&#xdc;" horiz-adv-x="1366" d="M166 500v930h141v-930q0 -88 23.5 -162t72 -127t119 -83t162.5 -30t163 30t119 83t71.5 127t23.5 162v930h141v-930q0 -158 -51 -260.5t-129 -161t-169 -81t-169 -22.5t-169 22.5t-169 81t-129 161t-51 260.5zM432 1552v172h154v-172h-154zM783 1552v172h153v-172h-153z " />
<glyph unicode="&#xdd;" horiz-adv-x="1251" d="M25 1430h163l437 -699l448 699h154l-531 -824v-606h-141v606zM508 1486l190 295h162l-258 -295h-94z" />
<glyph unicode="&#xde;" horiz-adv-x="1024" d="M176 0v1430h141v-267h211q201 0 322 -101t121 -304q0 -100 -36 -176t-97.5 -127.5t-144.5 -77t-179 -25.5h-197v-352h-141zM317 475h99q80 0 154.5 8.5t132 37t92 85t34.5 152.5q0 135 -73.5 208.5t-208.5 73.5h-230v-565z" />
<glyph unicode="&#xdf;" d="M162 0v1110q0 98 24.5 181t75.5 143.5t128 93.5t181 33q176 0 281.5 -101.5t105.5 -279.5q0 -139 -72.5 -233.5t-201.5 -123.5v-4q174 -14 263 -114.5t89 -264.5q0 -98 -30.5 -182t-88 -144.5t-139.5 -94t-186 -33.5q-31 0 -82 4t-92 20l8 121q33 -20 79 -27.5t89 -7.5 q74 0 129 25.5t94 71t58.5 109t19.5 136.5q0 90 -27.5 150.5t-79 96.5t-124 51.5t-160.5 15.5h-21v110h37q63 0 118.5 22.5t94.5 63.5t61.5 98.5t22.5 129.5q0 117 -64.5 195.5t-181.5 78.5q-55 0 -106 -17.5t-89 -60.5t-61.5 -117.5t-23.5 -189.5v-1065h-129z" />
<glyph unicode="&#xe0;" horiz-adv-x="1024" d="M82 270q0 131 62.5 205t157.5 110t208 44t215 8h25v53q0 135 -53.5 201.5t-184.5 66.5q-82 0 -159 -19t-148 -67v125q31 14 68.5 27.5t79.5 23t83 15.5t76 6q195 0 281 -92t86 -297v-461q0 -63 1 -114.5t9 -104.5h-127v168h-4q-23 -47 -58.5 -83t-81 -60.5t-94.5 -37 t-98 -12.5q-111 0 -178.5 33t-104.5 79t-49 97.5t-12 85.5zM223 274q0 -102 63.5 -145t153.5 -43q113 0 176.5 43t92 103.5t35 124t6.5 106.5v63h-37q-84 0 -171 -7t-158 -32.5t-116 -76t-45 -136.5zM277 1450h162l190 -295h-94z" />
<glyph unicode="&#xe1;" horiz-adv-x="1024" d="M82 270q0 131 62.5 205t157.5 110t208 44t215 8h25v53q0 135 -53.5 201.5t-184.5 66.5q-82 0 -159 -19t-148 -67v125q31 14 68.5 27.5t79.5 23t83 15.5t76 6q195 0 281 -92t86 -297v-461q0 -63 1 -114.5t9 -104.5h-127v168h-4q-23 -47 -58.5 -83t-81 -60.5t-94.5 -37 t-98 -12.5q-111 0 -178.5 33t-104.5 79t-49 97.5t-12 85.5zM223 274q0 -102 63.5 -145t153.5 -43q113 0 176.5 43t92 103.5t35 124t6.5 106.5v63h-37q-84 0 -171 -7t-158 -32.5t-116 -76t-45 -136.5zM394 1155l190 295h162l-258 -295h-94z" />
<glyph unicode="&#xe2;" horiz-adv-x="1024" d="M82 270q0 131 62.5 205t157.5 110t208 44t215 8h25v53q0 135 -53.5 201.5t-184.5 66.5q-82 0 -159 -19t-148 -67v125q31 14 68.5 27.5t79.5 23t83 15.5t76 6q195 0 281 -92t86 -297v-461q0 -63 1 -114.5t9 -104.5h-127v168h-4q-23 -47 -58.5 -83t-81 -60.5t-94.5 -37 t-98 -12.5q-111 0 -178.5 33t-104.5 79t-49 97.5t-12 85.5zM223 274q0 -102 63.5 -145t153.5 -43q113 0 176.5 43t92 103.5t35 124t6.5 106.5v63h-37q-84 0 -171 -7t-158 -32.5t-116 -76t-45 -136.5zM238 1155l190 295h168l191 -295h-94l-181 209l-180 -209h-94z" />
<glyph unicode="&#xe3;" horiz-adv-x="1024" d="M82 270q0 131 62.5 205t157.5 110t208 44t215 8h25v53q0 135 -53.5 201.5t-184.5 66.5q-82 0 -159 -19t-148 -67v125q31 14 68.5 27.5t79.5 23t83 15.5t76 6q195 0 281 -92t86 -297v-461q0 -63 1 -114.5t9 -104.5h-127v168h-4q-23 -47 -58.5 -83t-81 -60.5t-94.5 -37 t-98 -12.5q-111 0 -178.5 33t-104.5 79t-49 97.5t-12 85.5zM223 274q0 -102 63.5 -145t153.5 -43q113 0 176.5 43t92 103.5t35 124t6.5 106.5v63h-37q-84 0 -171 -7t-158 -32.5t-116 -76t-45 -136.5zM230 1203q6 33 19 65.5t33.5 59t48.5 43t65 16.5q31 0 63.5 -7t61.5 -18 q29 -10 53 -18t37 -8q33 0 61.5 17t38.5 52h76q-8 -55 -28.5 -91t-45.5 -55.5t-51.5 -26.5t-44.5 -7q-35 0 -67 8t-60 19q-29 10 -52.5 17t-43.5 7q-41 0 -58.5 -18.5t-32.5 -54.5h-73z" />
<glyph unicode="&#xe4;" horiz-adv-x="1024" d="M82 270q0 131 62.5 205t157.5 110t208 44t215 8h25v53q0 135 -53.5 201.5t-184.5 66.5q-82 0 -159 -19t-148 -67v125q31 14 68.5 27.5t79.5 23t83 15.5t76 6q195 0 281 -92t86 -297v-461q0 -63 1 -114.5t9 -104.5h-127v168h-4q-23 -47 -58.5 -83t-81 -60.5t-94.5 -37 t-98 -12.5q-111 0 -178.5 33t-104.5 79t-49 97.5t-12 85.5zM223 274q0 -102 63.5 -145t153.5 -43q113 0 176.5 43t92 103.5t35 124t6.5 106.5v63h-37q-84 0 -171 -7t-158 -32.5t-116 -76t-45 -136.5zM260 1221v172h154v-172h-154zM611 1221v172h153v-172h-153z" />
<glyph unicode="&#xe5;" horiz-adv-x="1024" d="M82 270q0 131 62.5 205t157.5 110t208 44t215 8h25v53q0 135 -53.5 201.5t-184.5 66.5q-82 0 -159 -19t-148 -67v125q31 14 68.5 27.5t79.5 23t83 15.5t76 6q195 0 281 -92t86 -297v-461q0 -63 1 -114.5t9 -104.5h-127v168h-4q-23 -47 -58.5 -83t-81 -60.5t-94.5 -37 t-98 -12.5q-111 0 -178.5 33t-104.5 79t-49 97.5t-12 85.5zM223 274q0 -102 63.5 -145t153.5 -43q113 0 176.5 43t92 103.5t35 124t6.5 106.5v63h-37q-84 0 -171 -7t-158 -32.5t-116 -76t-45 -136.5zM316 1327q0 82 55 138.5t141 56.5q84 0 140.5 -56.5t56.5 -138.5 q0 -84 -56.5 -139t-140.5 -55q-86 0 -141 55t-55 139zM389 1327q0 -53 37 -87t86 -34q53 0 88 34t35 87q0 51 -34.5 86t-88.5 35q-49 0 -86 -35t-37 -86z" />
<glyph unicode="&#xe6;" horiz-adv-x="1705" d="M94 254q0 125 61.5 193.5t150.5 101.5t188.5 40t177.5 7h90v55q0 66 -10.5 122t-36 97t-71.5 64.5t-118 23.5q-84 0 -160.5 -19t-148.5 -67v125q31 14 69 27.5t80 23t82.5 15.5t75.5 6q117 0 200 -40t134 -148q55 86 144.5 137t193.5 51q111 0 189.5 -42t129 -112.5 t74 -165t23.5 -198.5v-66h-709v-47q0 -74 18.5 -138t59.5 -112.5t105.5 -75t154.5 -26.5q35 0 77 7t82 17.5t75.5 25t58.5 28.5v-131q-68 -29 -149.5 -43.5t-153.5 -14.5q-162 0 -260.5 59.5t-136.5 151.5q-43 -63 -92.5 -104t-99.5 -64.5t-102.5 -33t-101.5 -9.5 q-156 0 -250 70t-94 209zM236 254q0 -41 19 -72.5t50 -53.5t70 -32t78 -10q86 0 145 26.5t95 73.5t52.5 109.5t16.5 134.5v55h-45q-61 0 -143 -4t-158 -25.5t-128 -68.5t-52 -133zM903 596h567q0 68 -14 133.5t-46 116.5t-83 81.5t-123 30.5q-68 0 -124 -31.5t-95 -81.5 t-60.5 -115.5t-21.5 -133.5z" />
<glyph unicode="&#xe7;" horiz-adv-x="909" d="M84 522q0 121 37 221.5t104.5 173t162.5 112.5t212 40q94 0 158.5 -15.5t93.5 -25.5l-10 -123q-53 23 -111.5 38t-112.5 15q-94 0 -167.5 -32.5t-124 -90t-76 -138.5t-25.5 -175q0 -90 25.5 -169t75 -138t120 -94t158.5 -35q61 0 118.5 12.5t117.5 34.5l12 -121 q-66 -23 -130.5 -30t-137.5 -7q-127 0 -220.5 44t-156 120t-93 175.5t-30.5 207.5zM333 -334l15 76q10 -6 29.5 -16.5t44 -19.5t52 -16t56.5 -7q47 0 76.5 18t29.5 57q0 35 -21.5 55.5t-55.5 20.5q-47 0 -86 -8l59 174h55l-39 -111q14 2 33 4.5t35 2.5q61 0 105 -34t44 -100 q0 -45 -21.5 -72.5t-55 -43t-73.5 -20.5t-75 -5q-33 0 -66.5 6t-63.5 14.5t-50.5 15.5t-26.5 9z" />
<glyph unicode="&#xe8;" horiz-adv-x="1024" d="M84 522q0 119 31.5 220.5t89 173t139.5 112.5t180 41q111 0 190 -42t129 -112.5t73.5 -165t23.5 -198.5v-66h-715q0 -84 22.5 -156.5t65.5 -125.5t107.5 -85t148.5 -32q35 0 77 7t82 17.5t76 25t58 28.5v-131q-68 -29 -149.5 -43.5t-153.5 -14.5q-129 0 -220 41 t-147.5 115t-82 174.5t-25.5 216.5zM225 596h574q0 68 -14.5 133.5t-46 116.5t-83 81.5t-123.5 30.5t-128 -32.5t-96 -83.5t-61.5 -117t-21.5 -129zM277 1450h162l190 -295h-94z" />
<glyph unicode="&#xe9;" horiz-adv-x="1024" d="M84 522q0 119 31.5 220.5t89 173t139.5 112.5t180 41q111 0 190 -42t129 -112.5t73.5 -165t23.5 -198.5v-66h-715q0 -84 22.5 -156.5t65.5 -125.5t107.5 -85t148.5 -32q35 0 77 7t82 17.5t76 25t58 28.5v-131q-68 -29 -149.5 -43.5t-153.5 -14.5q-129 0 -220 41 t-147.5 115t-82 174.5t-25.5 216.5zM225 596h574q0 68 -14.5 133.5t-46 116.5t-83 81.5t-123.5 30.5t-128 -32.5t-96 -83.5t-61.5 -117t-21.5 -129zM394 1155l190 295h162l-258 -295h-94z" />
<glyph unicode="&#xea;" horiz-adv-x="1024" d="M84 522q0 119 31.5 220.5t89 173t139.5 112.5t180 41q111 0 190 -42t129 -112.5t73.5 -165t23.5 -198.5v-66h-715q0 -84 22.5 -156.5t65.5 -125.5t107.5 -85t148.5 -32q35 0 77 7t82 17.5t76 25t58 28.5v-131q-68 -29 -149.5 -43.5t-153.5 -14.5q-129 0 -220 41 t-147.5 115t-82 174.5t-25.5 216.5zM225 596h574q0 68 -14.5 133.5t-46 116.5t-83 81.5t-123.5 30.5t-128 -32.5t-96 -83.5t-61.5 -117t-21.5 -129zM238 1155l190 295h168l191 -295h-94l-181 209l-180 -209h-94z" />
<glyph unicode="&#xeb;" horiz-adv-x="1024" d="M84 522q0 119 31.5 220.5t89 173t139.5 112.5t180 41q111 0 190 -42t129 -112.5t73.5 -165t23.5 -198.5v-66h-715q0 -84 22.5 -156.5t65.5 -125.5t107.5 -85t148.5 -32q35 0 77 7t82 17.5t76 25t58 28.5v-131q-68 -29 -149.5 -43.5t-153.5 -14.5q-129 0 -220 41 t-147.5 115t-82 174.5t-25.5 216.5zM225 596h574q0 68 -14.5 133.5t-46 116.5t-83 81.5t-123.5 30.5t-128 -32.5t-96 -83.5t-61.5 -117t-21.5 -129zM260 1221v172h154v-172h-154zM611 1221v172h153v-172h-153z" />
<glyph unicode="&#xec;" horiz-adv-x="454" d="M-8 1450h162l190 -295h-94zM162 0v1044h129v-1044h-129z" />
<glyph unicode="&#xed;" horiz-adv-x="454" d="M109 1155l190 295h162l-258 -295h-94zM162 0v1044h129v-1044h-129z" />
<glyph unicode="&#xee;" horiz-adv-x="454" d="M-47 1155l190 295h168l191 -295h-94l-181 209l-180 -209h-94zM162 0v1044h129v-1044h-129z" />
<glyph unicode="&#xef;" horiz-adv-x="454" d="M-25 1221v172h154v-172h-154zM162 0v1044h129v-1044h-129zM326 1221v172h153v-172h-153z" />
<glyph unicode="&#xf0;" d="M82 522q0 106 28.5 205.5t88 175.5t151.5 121t219 45q98 0 178 -42t144 -120h4q-29 121 -90.5 217.5t-149.5 167.5l-221 -137l-61 86l186 117q-121 74 -276 104l24 99q113 -16 205 -49t168 -80l219 135l62 -86l-191 -117q152 -131 219.5 -326.5t67.5 -431.5 q0 -305 -119 -468t-369 -163q-127 0 -219 45.5t-151.5 121t-88 175t-28.5 205.5zM223 522q0 -90 22.5 -170t66.5 -139t108.5 -93t148.5 -34t148.5 34t108.5 93t66.5 139t22.5 170t-22.5 170t-66.5 139.5t-108.5 93t-148.5 33.5t-148.5 -33.5t-108.5 -93t-66.5 -139.5 t-22.5 -170z" />
<glyph unicode="&#xf1;" d="M154 1044h125v-186h4q16 35 40.5 73t63.5 68.5t95.5 50t138.5 19.5q96 0 163.5 -30.5t110.5 -84t62.5 -127t19.5 -159.5v-668h-129v635q0 147 -57.5 235t-190.5 88q-88 0 -147.5 -34.5t-95 -90t-51 -123t-15.5 -132.5v-578h-129v799q0 59 -1 120.5t-7 124.5zM287 1203 q6 33 19 65.5t33.5 59t48.5 43t65 16.5q31 0 63.5 -7t61.5 -18q29 -10 53 -18t37 -8q33 0 61.5 17t38.5 52h76q-8 -55 -28.5 -91t-45.5 -55.5t-51.5 -26.5t-44.5 -7q-35 0 -67 8t-60 19q-29 10 -52.5 17t-43.5 7q-41 0 -58.5 -18.5t-32.5 -54.5h-73z" />
<glyph unicode="&#xf2;" d="M82 522q0 106 28.5 205.5t88 175.5t151.5 121t219 45t219.5 -45t151.5 -121t88 -175t29 -206q0 -106 -29 -205.5t-88 -175t-151.5 -121t-219.5 -45.5t-219 45.5t-151.5 121t-88 175t-28.5 205.5zM223 522q0 -90 22.5 -170t66.5 -139t108.5 -93t148.5 -34t148.5 34 t108.5 93t66.5 139t22.5 170t-22.5 170t-66.5 139.5t-108.5 93t-148.5 33.5t-148.5 -33.5t-108.5 -93t-66.5 -139.5t-22.5 -170zM334 1450h162l190 -295h-94z" />
<glyph unicode="&#xf3;" d="M82 522q0 106 28.5 205.5t88 175.5t151.5 121t219 45t219.5 -45t151.5 -121t88 -175t29 -206q0 -106 -29 -205.5t-88 -175t-151.5 -121t-219.5 -45.5t-219 45.5t-151.5 121t-88 175t-28.5 205.5zM223 522q0 -90 22.5 -170t66.5 -139t108.5 -93t148.5 -34t148.5 34 t108.5 93t66.5 139t22.5 170t-22.5 170t-66.5 139.5t-108.5 93t-148.5 33.5t-148.5 -33.5t-108.5 -93t-66.5 -139.5t-22.5 -170zM451 1155l190 295h162l-258 -295h-94z" />
<glyph unicode="&#xf4;" d="M82 522q0 106 28.5 205.5t88 175.5t151.5 121t219 45t219.5 -45t151.5 -121t88 -175t29 -206q0 -106 -29 -205.5t-88 -175t-151.5 -121t-219.5 -45.5t-219 45.5t-151.5 121t-88 175t-28.5 205.5zM223 522q0 -90 22.5 -170t66.5 -139t108.5 -93t148.5 -34t148.5 34 t108.5 93t66.5 139t22.5 170t-22.5 170t-66.5 139.5t-108.5 93t-148.5 33.5t-148.5 -33.5t-108.5 -93t-66.5 -139.5t-22.5 -170zM295 1155l190 295h168l191 -295h-94l-181 209l-180 -209h-94z" />
<glyph unicode="&#xf5;" d="M82 522q0 106 28.5 205.5t88 175.5t151.5 121t219 45t219.5 -45t151.5 -121t88 -175t29 -206q0 -106 -29 -205.5t-88 -175t-151.5 -121t-219.5 -45.5t-219 45.5t-151.5 121t-88 175t-28.5 205.5zM223 522q0 -90 22.5 -170t66.5 -139t108.5 -93t148.5 -34t148.5 34 t108.5 93t66.5 139t22.5 170t-22.5 170t-66.5 139.5t-108.5 93t-148.5 33.5t-148.5 -33.5t-108.5 -93t-66.5 -139.5t-22.5 -170zM287 1203q6 33 19 65.5t33.5 59t48.5 43t65 16.5q31 0 63.5 -7t61.5 -18q29 -10 53 -18t37 -8q33 0 61.5 17t38.5 52h76q-8 -55 -28.5 -91 t-45.5 -55.5t-51.5 -26.5t-44.5 -7q-35 0 -67 8t-60 19q-29 10 -52.5 17t-43.5 7q-41 0 -58.5 -18.5t-32.5 -54.5h-73z" />
<glyph unicode="&#xf6;" d="M82 522q0 106 28.5 205.5t88 175.5t151.5 121t219 45t219.5 -45t151.5 -121t88 -175t29 -206q0 -106 -29 -205.5t-88 -175t-151.5 -121t-219.5 -45.5t-219 45.5t-151.5 121t-88 175t-28.5 205.5zM223 522q0 -90 22.5 -170t66.5 -139t108.5 -93t148.5 -34t148.5 34 t108.5 93t66.5 139t22.5 170t-22.5 170t-66.5 139.5t-108.5 93t-148.5 33.5t-148.5 -33.5t-108.5 -93t-66.5 -139.5t-22.5 -170zM317 1221v172h154v-172h-154zM668 1221v172h153v-172h-153z" />
<glyph unicode="&#xf7;" horiz-adv-x="1228" d="M94 449v141h1039v-141h-1039zM483 117q0 53 39 92t92 39t92 -39t39 -92q0 -49 -38.5 -90t-92.5 -41q-53 0 -92 39t-39 92zM483 922q0 53 39 92t92 39t92 -39t39 -92q0 -49 -38.5 -90t-92.5 -41q-53 0 -92 39t-39 92z" />
<glyph unicode="&#xf8;" d="M39 -23l154 177q-57 76 -84 170t-27 198q0 106 28.5 205.5t88 175.5t151.5 121t219 45q104 0 184.5 -30.5t135.5 -84.5l139 162l72 -59l-150 -172q55 -72 81 -166t26 -197q0 -106 -29 -205.5t-88 -175t-151.5 -121t-219.5 -45.5q-100 0 -178 29t-137 80l-143 -166z M223 522q0 -152 62 -262l520 598q-45 47 -104.5 73.5t-131.5 26.5q-84 0 -148.5 -33.5t-108.5 -93t-66.5 -139.5t-22.5 -170zM340 182q90 -96 229 -96q84 0 148.5 34t108.5 93t66.5 139t22.5 170q0 150 -57 256z" />
<glyph unicode="&#xf9;" d="M162 377v667h129v-634q0 -147 57.5 -235.5t190.5 -88.5q88 0 147 35t95 90t51.5 122.5t15.5 133.5v577h129v-798q0 -59 1 -121t7 -125h-125v186h-4q-16 -35 -40.5 -72.5t-63.5 -68.5t-95.5 -50.5t-138.5 -19.5q-96 0 -163.5 31t-110.5 84t-62.5 127t-19.5 160zM334 1450 h162l190 -295h-94z" />
<glyph unicode="&#xfa;" d="M162 377v667h129v-634q0 -147 57.5 -235.5t190.5 -88.5q88 0 147 35t95 90t51.5 122.5t15.5 133.5v577h129v-798q0 -59 1 -121t7 -125h-125v186h-4q-16 -35 -40.5 -72.5t-63.5 -68.5t-95.5 -50.5t-138.5 -19.5q-96 0 -163.5 31t-110.5 84t-62.5 127t-19.5 160zM451 1155 l190 295h162l-258 -295h-94z" />
<glyph unicode="&#xfb;" d="M162 377v667h129v-634q0 -147 57.5 -235.5t190.5 -88.5q88 0 147 35t95 90t51.5 122.5t15.5 133.5v577h129v-798q0 -59 1 -121t7 -125h-125v186h-4q-16 -35 -40.5 -72.5t-63.5 -68.5t-95.5 -50.5t-138.5 -19.5q-96 0 -163.5 31t-110.5 84t-62.5 127t-19.5 160zM295 1155 l190 295h168l191 -295h-94l-181 209l-180 -209h-94z" />
<glyph unicode="&#xfc;" d="M162 377v667h129v-634q0 -147 57.5 -235.5t190.5 -88.5q88 0 147 35t95 90t51.5 122.5t15.5 133.5v577h129v-798q0 -59 1 -121t7 -125h-125v186h-4q-16 -35 -40.5 -72.5t-63.5 -68.5t-95.5 -50.5t-138.5 -19.5q-96 0 -163.5 31t-110.5 84t-62.5 127t-19.5 160zM317 1221 v172h154v-172h-154zM668 1221v172h153v-172h-153z" />
<glyph unicode="&#xfd;" horiz-adv-x="909" d="M18 1044h142l293 -872l-2 2h4l301 870h135l-418 -1200q-18 -53 -41.5 -105t-56.5 -92t-74 -64.5t-96 -24.5q-70 0 -139 16l12 111q18 -6 39.5 -11.5t56.5 -5.5q82 0 120 62.5t68 165.5l27 92zM336 1155l190 295h162l-258 -295h-94z" />
<glyph unicode="&#xfe;" d="M150 -430v1966h129v-682h4q8 20 29.5 57t59.5 72t95 60.5t141 25.5q115 0 197 -41t134 -113.5t75.5 -173t23.5 -219.5q0 -117 -26.5 -216t-80.5 -173t-135 -116t-188 -42q-123 0 -200.5 52.5t-124.5 162.5h-4v-620h-129zM279 522q0 -72 16 -148.5t52 -141t95.5 -105.5 t145.5 -41q92 0 151.5 40t95 102.5t49 140t13.5 153.5t-13.5 154t-49 140.5t-95 102t-151.5 39.5q-86 0 -145.5 -40.5t-95.5 -105t-52 -141.5t-16 -149z" />
<glyph unicode="&#xff;" horiz-adv-x="909" d="M18 1044h142l293 -872l-2 2h4l301 870h135l-418 -1200q-18 -53 -41.5 -105t-56.5 -92t-74 -64.5t-96 -24.5q-70 0 -139 16l12 111q18 -6 39.5 -11.5t56.5 -5.5q82 0 120 62.5t68 165.5l27 92zM202 1221v172h154v-172h-154zM553 1221v172h153v-172h-153z" />
<glyph unicode="&#x152;" horiz-adv-x="1820" d="M111 715q0 135 31.5 265t99 233.5t175 167t261.5 63.5q86 0 172 -7t172 -7h651v-123h-555v-510h527v-123h-527v-551h580v-123h-676q-86 0 -172 -7t-172 -7q-154 0 -261.5 63.5t-175 166.5t-99 233.5t-31.5 265.5zM252 715q0 -152 29.5 -255.5t75.5 -170t101.5 -103 t106.5 -53t93 -19.5t59 -3q80 0 141.5 4t118.5 8v1184q-57 4 -118.5 8t-141.5 4q-18 0 -59.5 -3t-92.5 -19.5t-106.5 -53.5t-101.5 -103.5t-75.5 -170t-29.5 -254.5z" />
<glyph unicode="&#x153;" horiz-adv-x="1820" d="M74 522q0 106 28.5 205.5t88 175.5t151.5 121t219 45q133 0 235.5 -52t157.5 -173q57 111 149.5 168t225.5 57q111 0 189.5 -43t129 -114.5t74 -164t23.5 -192.5v-70h-715q0 -84 22.5 -156.5t65.5 -125.5t107.5 -85t148.5 -32q35 0 77 7t82 17.5t76 25t58 28.5v-131 q-68 -29 -149.5 -43.5t-153.5 -14.5q-154 0 -251 57.5t-150 155.5q-55 -96 -154.5 -154.5t-247.5 -58.5q-127 0 -219 45.5t-151.5 121t-88 175t-28.5 205.5zM215 522q0 -90 22.5 -170t66.5 -139t108.5 -93t148.5 -34q96 0 159.5 35t100.5 94t52.5 138t15.5 169 q0 82 -14.5 161t-51.5 140.5t-100.5 98t-161.5 36.5q-84 0 -148.5 -33.5t-108.5 -93t-66.5 -139.5t-22.5 -170zM1030 596h574q0 68 -16.5 133.5t-49.5 116.5t-83 81.5t-118 30.5q-147 0 -227 -101t-80 -261z" />
<glyph unicode="&#x178;" horiz-adv-x="1251" d="M25 1430h163l437 -699l448 699h154l-531 -824v-606h-141v606zM374 1552v172h154v-172h-154zM725 1552v172h153v-172h-153z" />
<glyph unicode="&#x2c6;" horiz-adv-x="454" d="M-47 1171l190 295h168l191 -295h-94l-181 209l-180 -209h-94z" />
<glyph unicode="&#x2dc;" horiz-adv-x="454" d="M-55 1219q6 33 19 65.5t33.5 59t48.5 43t65 16.5q31 0 63.5 -7t61.5 -18q29 -10 53 -18t37 -8q33 0 61.5 17t38.5 52h76q-8 -55 -28.5 -91t-45.5 -55.5t-51.5 -26.5t-44.5 -7q-35 0 -67 8t-60 19q-29 10 -52.5 17t-43.5 7q-41 0 -58.5 -18.5t-32.5 -54.5h-73z" />
<glyph unicode="&#x2000;" horiz-adv-x="933" />
<glyph unicode="&#x2001;" horiz-adv-x="1866" />
<glyph unicode="&#x2002;" horiz-adv-x="933" />
<glyph unicode="&#x2003;" horiz-adv-x="1866" />
<glyph unicode="&#x2004;" horiz-adv-x="622" />
<glyph unicode="&#x2005;" horiz-adv-x="466" />
<glyph unicode="&#x2006;" horiz-adv-x="311" />
<glyph unicode="&#x2007;" horiz-adv-x="311" />
<glyph unicode="&#x2008;" horiz-adv-x="233" />
<glyph unicode="&#x2009;" horiz-adv-x="373" />
<glyph unicode="&#x200a;" horiz-adv-x="103" />
<glyph unicode="&#x2010;" horiz-adv-x="681" d="M84 481v142h514v-142h-514z" />
<glyph unicode="&#x2011;" horiz-adv-x="681" d="M84 481v142h514v-142h-514z" />
<glyph unicode="&#x2012;" horiz-adv-x="681" d="M84 481v142h514v-142h-514z" />
<glyph unicode="&#x2013;" horiz-adv-x="1024" d="M0 496v110h1024v-110h-1024z" />
<glyph unicode="&#x2014;" horiz-adv-x="2048" d="M0 496v110h2048v-110h-2048z" />
<glyph unicode="&#x2018;" horiz-adv-x="569" d="M147 983l158 447h117l-121 -447h-154z" />
<glyph unicode="&#x2019;" horiz-adv-x="569" d="M147 983l121 447h154l-158 -447h-117z" />
<glyph unicode="&#x201a;" horiz-adv-x="569" d="M147 -274l121 446h154l-158 -446h-117z" />
<glyph unicode="&#x201c;" d="M252 983l158 447h116l-120 -447h-154zM612 983l158 447h117l-121 -447h-154z" />
<glyph unicode="&#x201d;" d="M252 983l121 447h153l-157 -447h-117zM612 983l121 447h154l-158 -447h-117z" />
<glyph unicode="&#x201e;" d="M252 -274l121 446h153l-155 -446h-119zM612 -274l121 446h154l-158 -446h-117z" />
<glyph unicode="&#x2022;" horiz-adv-x="1024" d="M156 715q0 74 27.5 139.5t76.5 113.5t113.5 76.5t138.5 28.5t139.5 -28.5t113.5 -76.5t76.5 -114t28.5 -139q0 -74 -28.5 -138.5t-76.5 -113.5t-113.5 -77t-139.5 -28t-138.5 28t-113.5 77t-76.5 113.5t-27.5 138.5z" />
<glyph unicode="&#x2026;" horiz-adv-x="2048" d="M260 0v172h166v-172h-166zM942 0v172h166v-172h-166zM1624 0v172h166v-172h-166z" />
<glyph unicode="&#x202f;" horiz-adv-x="373" />
<glyph unicode="&#x2039;" horiz-adv-x="569" d="M80 551l287 420h120l-272 -420l272 -420h-120z" />
<glyph unicode="&#x203a;" horiz-adv-x="569" d="M82 131l272 420l-272 420h121l286 -420l-286 -420h-121z" />
<glyph unicode="&#x205f;" horiz-adv-x="466" />
<glyph unicode="&#x2122;" horiz-adv-x="2027" d="M131 1331v99h666v-99h-269v-749h-129v749h-268zM979 582v848h209l250 -654l250 654h208v-848h-129v737h-4l-282 -737h-88l-281 737h-4v-737h-129z" />
<glyph unicode="&#xe000;" horiz-adv-x="1044" d="M0 0v1044h1044v-1044h-1044z" />
</font>
</defs>
</svg>
